<?xml version="1.0" encoding="UTF-8"?>
<svg version="1.1" xmlns="http://www.w3.org/2000/svg" width="712" height="712">
<path d="M0 0 C4.32096019 1.44032006 5.85830396 4.74665688 8.3125 8.375 C9.38745879 9.93227801 10.46435759 11.48821824 11.54296875 13.04296875 C12.10677246 13.85685059 12.67057617 14.67073242 13.25146484 15.50927734 C16.13815898 19.62126472 19.13109441 23.65324901 22.125 27.6875 C26.96537614 34.22515942 31.74297518 40.80060582 36.45703125 47.4296875 C43.9342787 57.94225322 51.52118868 68.37468214 59.1875 78.75 C64.00285057 85.26724298 68.75864444 91.82113274 73.453125 98.42578125 C78.03990213 104.87525511 82.69333353 111.27707393 87.33105469 117.68994141 C88.96518299 119.95180829 90.5963713 122.21576308 92.2265625 124.48046875 C98.36516012 133.00391248 104.5458267 141.49358787 110.80444336 149.92944336 C111.33690674 150.6488208 111.86937012 151.36819824 112.41796875 152.109375 C113.22945877 153.16408997 113.22945877 153.16408997 114.05734253 154.2401123 C116 157 116 157 117.8712616 160.48805237 C121.6863943 167.37096626 121.6863943 167.37096626 127.94376945 171.79161453 C133.55064866 173.01123943 139.24758252 172.677641 144.9453125 172.48046875 C146.80163784 172.46914131 148.6580146 172.46449532 150.51437378 172.46614075 C155.3964053 172.45473009 160.2734326 172.36255267 165.15405273 172.25 C172.89494745 172.08715432 180.63838797 172.05342994 188.38068199 172.0010643 C190.25467659 171.98735168 192.12865409 171.97105435 194.00260353 171.95215225 C208.24911132 171.81189446 221.94281816 172.45795006 236 175 C237.21719727 175.19940186 238.43439453 175.39880371 239.68847656 175.60424805 C242.49815326 176.09091311 245.2768003 176.64256015 248.0625 177.25 C249.50749878 177.55707886 249.50749878 177.55707886 250.98168945 177.87036133 C262.59931138 180.43582921 274.63807611 183.44090237 285.60986328 188.11083984 C290.71471607 190.00990765 295.52981537 187.53046669 300.3125 185.5625 C326.44283732 175.34014707 354.87024077 180.88936405 379.94067383 191.71435547 C398.05710969 199.84704562 415.39589304 210.32295549 429.87890625 224 C431.85708891 225.86524773 433.90239514 227.58457204 436 229.3125 C453.32645745 244.54723221 465.31199251 267.90658145 471 290 C471.22429688 290.76570313 471.44859375 291.53140625 471.6796875 292.3203125 C475.69575808 308.10952148 473.95335044 326.24890525 465.81640625 340.3203125 C462.6682199 344.96473365 458.91844358 348.9994557 455 353 C454.18595703 353.88171875 454.18595703 353.88171875 453.35546875 354.78125 C452 356 452 356 450 356 C450.1858667 356.59087402 450.3717334 357.18174805 450.56323242 357.79052734 C454.22084864 369.54223972 457.48213216 381.28311073 459.8125 393.375 C460.00674561 394.36935059 460.20099121 395.36370117 460.40112305 396.38818359 C463.35195701 412.36700781 464.30057402 428.11177202 464.29052734 444.32348633 C464.29652905 446.28844961 464.30333829 448.25341056 464.31088257 450.21836853 C464.32836031 455.49434249 464.3332295 460.77025141 464.33451414 466.04625154 C464.33594413 469.34734079 464.34022912 472.64841391 464.34550858 475.94949913 C464.36393226 487.47716688 464.37218685 499.00478871 464.37060547 510.5324707 C464.36939878 521.26646163 464.39062369 532.00025323 464.4220928 542.73419362 C464.44821532 551.97448285 464.45897481 561.21470664 464.45769465 570.45503253 C464.45718482 575.96420677 464.4628829 581.47320255 464.48405075 586.98233986 C464.50337088 592.14949056 464.50360047 597.31629091 464.48901749 602.48345375 C464.48692215 604.37935395 464.49167324 606.2752758 464.5037384 608.17113876 C464.51913118 610.75686695 464.50992378 613.34137708 464.49447632 615.92707825 C464.50476344 616.67842554 464.51505057 617.42977284 464.52564943 618.20388824 C464.46118793 623.07855051 463.47757438 625.5824631 460 629 C456.53154217 630.73422892 452.79228327 630.46502956 449 630 C446 628.375 446 628.375 444 626 C443.60520486 624.01121949 443.26436547 622.01027909 443 620 C406.37852444 620.01309524 369.75717083 620.05236214 333.13576747 620.12685562 C328.81479587 620.13562264 324.49382386 620.1441724 320.17285156 620.15258789 C319.31260375 620.15426695 318.45235594 620.15594602 317.56604001 620.15767596 C303.62690517 620.18436444 289.68781145 620.19344236 275.74865368 620.19604143 C261.45165984 620.19909811 247.15478512 620.2210117 232.85784507 620.26052457 C224.03188637 620.28431995 215.20616529 620.29330925 206.3801789 620.28351311 C200.33239641 620.27820786 194.28482735 620.29117651 188.23710564 620.3186629 C184.74489622 620.33399044 181.25316424 620.34111909 177.76094055 620.32659721 C173.97834226 620.31505952 170.19710377 620.33396762 166.41461182 620.36076355 C165.30567007 620.35009029 164.19672833 620.33941703 163.05418229 620.32842034 C157.13798105 620.25601474 157.13798105 620.25601474 152.41958237 623.44257069 C151.95112019 624.28652236 151.482658 625.13047403 151 626 C148.87207031 627.55810547 148.87207031 627.55810547 146.578125 628.8671875 C145.72565186 629.35695068 144.87317871 629.84671387 143.99487305 630.35131836 C143.08906494 630.8541333 142.18325684 631.35694824 141.25 631.875 C140.3113208 632.4016626 139.3726416 632.9283252 138.40551758 633.47094727 C112.38444687 647.86365143 86.02053981 654.22110753 56.27734375 654.12109375 C55.44540937 654.1197537 54.613475 654.11841366 53.75633049 654.117033 C30.51632223 654.07576798 7.28160622 653.59523525 -15.95300293 653.13116455 C-20.62814996 653.03903738 -25.30338219 652.95173312 -29.97862148 652.86443424 C-34.57326797 652.77811412 -39.1678589 652.68907962 -43.76243782 652.59924126 C-45.91126163 652.55746308 -48.06009929 652.51638911 -50.20895195 652.4761219 C-61.45706976 652.26354706 -72.6998007 651.97747107 -83.94165039 651.54077148 C-84.91968093 651.50513375 -85.89771147 651.46949602 -86.9053793 651.43277836 C-113.48630887 650.3309729 -138.51282509 641.11980776 -159 624 C-160.49273437 622.75283203 -160.49273437 622.75283203 -162.015625 621.48046875 C-185.80287667 600.95320546 -199.00705547 572.59208258 -202.75 541.6875 C-202.86014527 540.12666089 -202.94190023 538.56364162 -203 537 C-203.03996094 535.98550781 -203.07992187 534.97101562 -203.12109375 533.92578125 C-203.89370544 494.06810776 -188.5750559 457.39783619 -161.5 428.45703125 C-156.52533425 423.56786756 -151.13099095 419.14323785 -145.375 415.203125 C-144.570625 414.64109375 -143.76625 414.0790625 -142.9375 413.5 C-142.22464844 413.0359375 -141.51179688 412.571875 -140.77734375 412.09375 C-137.98727486 408.80698753 -137.72610359 405.17329648 -137 401 C-136.59618881 398.9456169 -136.18697172 396.89229176 -135.7734375 394.83984375 C-135.54994629 393.72746338 -135.32645508 392.61508301 -135.09619141 391.46899414 C-132.65578884 379.51895245 -129.67689062 368.03317976 -125.54052734 356.55249023 C-125.21004395 355.62895752 -124.87956055 354.7054248 -124.5390625 353.75390625 C-124.09361084 352.55229858 -124.09361084 352.55229858 -123.63916016 351.32641602 C-122.74112498 348.05774635 -122.37416401 345.21576336 -123.953125 342.1484375 C-124.38109375 341.56320312 -124.8090625 340.97796875 -125.25 340.375 C-134.03299145 327.25041619 -134.97585968 310.50247073 -132.28125 295.29296875 C-125.68855636 263.98030264 -107.60413802 236.06164419 -82 217 C-81.47470703 216.60506348 -80.94941406 216.21012695 -80.40820312 215.80322266 C-60.30523491 200.76118255 -37.1108223 187.07941594 -12 183 C-11.95686172 181.99257751 -11.91372345 180.98515503 -11.86927795 179.94720459 C-11.08397874 162.63379784 -9.85413068 145.34778315 -8.67738605 128.05767918 C-8.37049049 123.54283157 -8.06561737 119.02784737 -7.76051331 114.51287842 C-7.18466932 105.9959089 -6.6070536 97.47906054 -6.02877241 88.96225619 C-5.36956488 79.25227718 -4.71237648 69.54216183 -4.05534256 59.83203554 C-2.70577978 39.88787312 -1.35373053 19.94387993 0 0 Z " fill="#98E6FE" transform="translate(213,58)"/>
<path d="M0 0 C0.23800552 11.95316607 -0.13367871 23.69500123 -1.28857422 35.59960938 C-2.53507402 46.87730106 -2.53507402 46.87730106 -1 58 C-1.63164062 58.43828125 -2.26328125 58.8765625 -2.9140625 59.328125 C-20.96830596 72.12738693 -37.48534944 87.45150887 -51 105 C-51.76054687 105.93199219 -52.52109375 106.86398437 -53.3046875 107.82421875 C-61.14944995 117.61137446 -67.63203122 128.20941364 -74 139 C-74.39461426 139.66757324 -74.78922852 140.33514648 -75.19580078 141.02294922 C-87.8227232 162.70489583 -98.63558768 188.86002411 -101 214 C-100.3915625 213.75765625 -99.783125 213.5153125 -99.15625 213.265625 C-93.62358905 211.15019581 -88.04610295 209.35949225 -82.3125 207.875 C-81.11238281 207.56304687 -79.91226563 207.25109375 -78.67578125 206.9296875 C-62.65808993 203.5322693 -46.64493701 203.7007249 -30.34441686 203.73134899 C-26.73802617 203.73649235 -23.1316445 203.73169391 -19.5252533 203.72857666 C-13.46432646 203.72495667 -7.40344865 203.7296796 -1.3425293 203.73925781 C5.59308207 203.75009412 12.52857534 203.74664401 19.46418375 203.735605 C25.4818425 203.72642195 31.49946643 203.72530101 37.51712996 203.73048234 C41.08301785 203.7335482 44.648851 203.73416578 48.21473503 203.72740936 C89.56784409 203.65984417 130.32983866 208.61237857 170.71151733 217.48526001 C172.26642565 217.82570212 173.82260037 218.1604157 175.3800354 218.48910522 C177.56149267 218.95281698 179.73587394 219.44136518 181.91015625 219.9375 C183.15933838 220.21464844 184.40852051 220.49179687 185.69555664 220.77734375 C190.04442831 222.38644233 192.91049447 224.82098895 195 229 C195.41204834 233.63554388 194.87454146 236.30416098 192 240 C188.63498237 242.52376322 185.03695278 242.33983882 181 242 C176.78042381 241.24555407 172.61433545 240.27285562 168.4375 239.3125 C156.51485985 236.65198419 144.57294392 234.48413222 132.51147461 232.56176758 C130.70948608 232.27402466 130.70948608 232.27402466 128.87109375 231.98046875 C127.27672485 231.73139771 127.27672485 231.73139771 125.65014648 231.47729492 C123 231 123 231 120 230 C85.11585397 224.43508912 49.52810015 225.37937362 14.32232165 225.4857254 C7.88219759 225.5031213 1.44238584 225.49064715 -4.99771869 225.47121 C-11.31390266 225.45293387 -17.62995377 225.45055056 -23.94615567 225.46096468 C-27.67473836 225.4671067 -31.40311144 225.4682952 -35.13167953 225.45481873 C-73.56718469 225.33485706 -104.55838027 234.17546232 -133 261 C-133.68835938 261.62390625 -134.37671875 262.2478125 -135.0859375 262.890625 C-141.09397022 268.54245025 -145.54719169 275.11545912 -150 282 C-150.62003906 282.94746094 -151.24007812 283.89492188 -151.87890625 284.87109375 C-167.04928341 309.34053879 -173.01996577 341.95460847 -166.56542969 370.20019531 C-161.69941934 388.0220528 -152.77435553 403.67719271 -140 417 C-139.41347656 417.63808594 -138.82695312 418.27617188 -138.22265625 418.93359375 C-126.85813409 430.93987716 -110.88752352 439.02329302 -95 443 C-93.94941406 443.28617188 -92.89882812 443.57234375 -91.81640625 443.8671875 C-84.9785705 445.55852497 -78.40828659 446.26404868 -71.390625 446.546875 C-70.01194244 446.60674843 -70.01194244 446.60674843 -68.60540771 446.66783142 C-33.38159583 448.14020158 1.90801546 448.14413398 37.15686035 448.23117065 C41.53183247 448.24222551 45.90669466 448.26003781 50.28161621 448.28372192 C55.52480503 448.31141439 60.7678182 448.32335948 66.01107788 448.32413673 C67.95825574 448.3267486 69.90543486 448.33437928 71.85256958 448.34760094 C87.140059 448.44526896 102.10607654 447.52779559 116.5 441.875 C117.27915771 441.57859619 118.05831543 441.28219238 118.86108398 440.97680664 C129.32595528 436.86466311 139.16443136 431.48769774 148.625 425.4375 C152.56836825 423.0272919 155.30590605 422.17163048 160 423 C163.5386994 424.65139305 164.81070153 425.71605229 167 429 C167.3359375 431.0859375 167.3359375 431.0859375 167.375 433.375 C167.40335937 434.12523437 167.43171875 434.87546875 167.4609375 435.6484375 C166.6487359 439.79204226 164.39065257 442.04082594 160.96044922 444.40673828 C158.4230619 445.96224668 155.85219171 447.43052091 153.25 448.875 C152.3113208 449.4016626 151.3726416 449.9283252 150.40551758 450.47094727 C124.38444687 464.86365143 98.02053981 471.22110753 68.27734375 471.12109375 C67.44540937 471.1197537 66.613475 471.11841366 65.75633049 471.117033 C42.51632223 471.07576798 19.28160622 470.59523525 -3.95300293 470.13116455 C-8.62814996 470.03903738 -13.30338219 469.95173312 -17.97862148 469.86443424 C-22.57326797 469.77811412 -27.1678589 469.68907962 -31.76243782 469.59924126 C-33.91126163 469.55746308 -36.06009929 469.51638911 -38.20895195 469.4761219 C-49.45706976 469.26354706 -60.6998007 468.97747107 -71.94165039 468.54077148 C-72.91968093 468.50513375 -73.89771147 468.46949602 -74.9053793 468.43277836 C-101.48630887 467.3309729 -126.51282509 458.11980776 -147 441 C-147.99515625 440.16855469 -148.9903125 439.33710937 -150.015625 438.48046875 C-173.80287667 417.95320546 -187.00705547 389.59208258 -190.75 358.6875 C-190.86014527 357.12666089 -190.94190023 355.56364162 -191 354 C-191.03996094 352.98550781 -191.07992187 351.97101563 -191.12109375 350.92578125 C-191.89370544 311.06810776 -176.5750559 274.39783619 -149.5 245.45703125 C-144.52533425 240.56786756 -139.13099095 236.14323785 -133.375 232.203125 C-132.570625 231.64109375 -131.76625 231.0790625 -130.9375 230.5 C-130.22464844 230.0359375 -129.51179688 229.571875 -128.77734375 229.09375 C-125.98727486 225.80698753 -125.72610359 222.17329648 -125 218 C-124.59618881 215.9456169 -124.18697172 213.89229176 -123.7734375 211.83984375 C-123.54994629 210.72746338 -123.32645508 209.61508301 -123.09619141 208.46899414 C-120.65578884 196.51895245 -117.67689062 185.03317976 -113.54052734 173.55249023 C-113.21004395 172.62895752 -112.87956055 171.7054248 -112.5390625 170.75390625 C-112.24209473 169.95283447 -111.94512695 169.1517627 -111.63916016 168.32641602 C-110.74112498 165.05774635 -110.37416401 162.21576336 -111.953125 159.1484375 C-112.38109375 158.56320312 -112.8090625 157.97796875 -113.25 157.375 C-122.03299145 144.25041619 -122.97585968 127.50247073 -120.28125 112.29296875 C-113.68855636 80.98030264 -95.60413802 53.06164419 -70 34 C-69.47470703 33.60506348 -68.94941406 33.21012695 -68.40820312 32.80322266 C-50.57565392 19.46002292 -23.20850523 0 0 0 Z " fill="#01C2FE" transform="translate(201,241)"/>
<path d="M0 0 C4.32096019 1.44032006 5.85830396 4.74665688 8.3125 8.375 C9.38745879 9.93227801 10.46435759 11.48821824 11.54296875 13.04296875 C12.10677246 13.85685059 12.67057617 14.67073242 13.25146484 15.50927734 C16.13815898 19.62126472 19.13109441 23.65324901 22.125 27.6875 C26.96537614 34.22515942 31.74297518 40.80060582 36.45703125 47.4296875 C43.9342787 57.94225322 51.52118868 68.37468214 59.1875 78.75 C64.00285057 85.26724298 68.75864444 91.82113274 73.453125 98.42578125 C78.03990213 104.87525511 82.69333353 111.27707393 87.33105469 117.68994141 C88.96518299 119.95180829 90.5963713 122.21576308 92.2265625 124.48046875 C97.22425965 131.41930706 102.2418264 138.34031742 107.3347168 145.2097168 C113.1449033 153.04827879 118.79405695 160.96648143 124.28515625 169.03125 C126.66842219 172.52821603 129.0892111 175.99718497 131.53051758 179.45385742 C132.54435986 180.89068602 133.55339624 182.3309189 134.55737305 183.7746582 C136.95787076 187.2090826 139.40522945 190.5399269 142.0859375 193.76171875 C148.90299027 202.11422556 148.90299027 202.11422556 149.16015625 207.11328125 C148.45312608 210.33884491 147.40892621 213.01545771 146 216 C145.57332031 217.010625 145.14664063 218.02125 144.70703125 219.0625 C137.76396806 234.31001132 125.53576775 246.86459683 111 255 C109.98679687 255.58523438 108.97359375 256.17046875 107.9296875 256.7734375 C82.00549368 270.80804834 48.39441751 274.25431817 19.84375 267.22265625 C7.31981658 263.46224841 -4.61439908 256.63466063 -11.6640625 245.33203125 C-15.95318355 236.83765464 -15.29159559 229.02120294 -14.39972878 219.75909424 C-13.36427252 208.8889063 -12.71311755 198.02974389 -12.20954394 187.12481499 C-11.26080095 166.74073845 -9.9739806 146.3872646 -8.57599211 126.02980042 C-8.27042717 121.56854694 -7.96904809 117.1070103 -7.66714478 112.64550781 C-7.09984061 104.27076975 -6.52900242 95.89627686 -5.95675337 87.52187538 C-5.3033139 77.95663212 -4.65402895 68.3911081 -4.00501895 58.82556343 C-2.67449537 39.21673604 -1.33899503 19.60825065 0 0 Z " fill="#252526" transform="translate(213,58)"/>
<path d="M0 0 C10.79846773 -0.07024335 21.59687902 -0.12318158 32.3955307 -0.15543652 C37.41253362 -0.17093566 42.42937759 -0.19187661 47.44628906 -0.22631836 C90.36122706 -0.51297615 90.36122706 -0.51297615 110 3 C111.2163916 3.19891846 112.4327832 3.39783691 113.68603516 3.6027832 C116.49633266 4.09050066 119.27602134 4.64239029 122.0625 5.25 C123.02583252 5.45471924 123.98916504 5.65943848 124.98168945 5.87036133 C136.59931138 8.43582921 148.63807611 11.44090237 159.60986328 16.11083984 C164.71471607 18.00990765 169.52981537 15.53046669 174.3125 13.5625 C200.44283732 3.34014707 228.87024077 8.88936405 253.94067383 19.71435547 C272.05710969 27.84704562 289.39589304 38.32295549 303.87890625 52 C305.85708891 53.86524773 307.90239514 55.58457204 310 57.3125 C327.32645745 72.54723221 339.31199251 95.90658145 345 118 C345.33644531 119.14855469 345.33644531 119.14855469 345.6796875 120.3203125 C349.69575808 136.10952148 347.95335044 154.24890525 339.81640625 168.3203125 C336.6682199 172.96473365 332.91844358 176.9994557 329 181 C328.45730469 181.5878125 327.91460938 182.175625 327.35546875 182.78125 C326 184 326 184 324 184 C324.1858667 184.59087402 324.3717334 185.18174805 324.56323242 185.79052734 C328.22084864 197.54223972 331.48213216 209.28311073 333.8125 221.375 C334.00674561 222.36935059 334.20099121 223.36370117 334.40112305 224.38818359 C337.35195701 240.36700781 338.30057402 256.11177202 338.29052734 272.32348633 C338.29652905 274.28844961 338.30333829 276.25341056 338.31088257 278.21836853 C338.32836031 283.49434249 338.3332295 288.77025141 338.33451414 294.04625154 C338.33594413 297.34734079 338.34022912 300.64841391 338.34550858 303.94949913 C338.36393226 315.47716688 338.37218685 327.00478871 338.37060547 338.5324707 C338.36939878 349.26646163 338.39062369 360.00025323 338.4220928 370.73419362 C338.44821532 379.97448285 338.45897481 389.21470664 338.45769465 398.45503253 C338.45718482 403.96420677 338.4628829 409.47320255 338.48405075 414.98233986 C338.50337088 420.14949056 338.50360047 425.31629091 338.48901749 430.48345375 C338.48692215 432.37935395 338.49167324 434.2752758 338.5037384 436.17113876 C338.51913118 438.75686695 338.50992378 441.34137708 338.49447632 443.92707825 C338.50990701 445.05409919 338.50990701 445.05409919 338.52564943 446.20388824 C338.46118793 451.07855051 337.47757438 453.5824631 334 457 C330.54260443 458.72869779 326.78024432 458.48966895 323 458 C320.12970131 456.20606332 318.50868362 455.01736724 317 452 C316.89882566 449.47177019 316.85833986 446.97076044 316.86196899 444.44210815 C316.85914771 443.65287307 316.85632643 442.86363798 316.85341966 442.05048668 C316.8450484 439.39025607 316.84373314 436.73006695 316.84228516 434.06982422 C316.83761808 432.16760643 316.8324747 430.26538975 316.82688904 428.36317444 C316.81558778 424.25495381 316.80716273 420.14674052 316.80076981 416.03850937 C316.79008204 409.52077292 316.76982827 403.00308829 316.74765015 396.48538208 C316.68577414 377.94633397 316.63193625 359.40728706 316.59863281 340.86816406 C316.58017375 330.63748519 316.5510861 320.40689149 316.5106281 310.17627537 C316.48972121 304.77082475 316.47412455 299.36548079 316.47182083 293.95998764 C316.62869214 262.34961056 316.62869214 262.34961056 313 231 C312.81280584 229.96064615 312.81280584 229.96064615 312.62182999 228.90029526 C311.09221018 220.59334924 308.85660005 212.44731288 306.62548828 204.30541992 C306.41520996 203.53045166 306.20493164 202.7554834 305.98828125 201.95703125 C305.79790283 201.26585205 305.60752441 200.57467285 305.41137695 199.86254883 C305 198 305 198 305 195 C304.13503906 195.31453125 303.27007813 195.6290625 302.37890625 195.953125 C285.51765433 201.80065305 268.00411002 204.32799806 250.1875 204.4375 C249.1454541 204.4475708 248.1034082 204.4576416 247.02978516 204.46801758 C229.89956813 204.27463402 215.97696997 198.16060324 204 186 C203.33613281 185.33484375 202.67226563 184.6696875 201.98828125 183.984375 C194.76747329 176.30952029 183.04884512 163.21081023 181.5 152.5625 C182.16375558 147.83324149 183.65681791 146.34318209 187 143 C189.86608129 141.56695936 191.81300783 141.69355845 195 142 C200.95419278 145.07233035 203.75429991 149.58180041 207.3125 155.125 C215.56236859 167.52794343 223.02877703 178.38849102 238.38574219 181.59863281 C254.17724001 184.02310259 270.72637796 182.38301864 286 178 C286.69722168 177.80212891 287.39444336 177.60425781 288.11279297 177.40039062 C300.48248839 173.79535796 313.38335969 168.77265725 320.640625 157.4375 C327.0368622 145.08614541 326.39910894 131.37242416 322.33251953 118.36499023 C319.67417007 110.51828216 316.07880535 103.19702248 312 96 C311.65453125 95.39027344 311.3090625 94.78054688 310.953125 94.15234375 C292.66467587 62.55700066 257.63545221 41.94227472 223.09326172 32.4987793 C209.67696087 29.30196303 191.36885442 28.46407693 179 35 C176.31936014 36.66829072 173.76774234 38.40657139 171.25390625 40.31640625 C166.37155619 43.96336098 163.24734201 45.78091775 157 45 C153.67216884 43.0467078 152.28807128 41.97501049 151.1875 38.25 C151.125625 37.5075 151.06375 36.765 151 36 C150.29399658 35.87020752 149.58799316 35.74041504 148.8605957 35.60668945 C145.9203032 34.9830975 143.10411177 34.17306414 140.23046875 33.29296875 C128.66370607 29.81945898 117.17769256 26.53892207 105.25 24.5625 C104.34918701 24.41127686 103.44837402 24.26005371 102.52026367 24.10424805 C89.31720063 22.0795469 76.11194929 21.89391945 62.7890625 22.17578125 C59.24957783 22.21414413 55.7099605 22.23267881 52.17032814 22.25208759 C48.51831515 22.27608325 44.86995038 22.32589484 41.21923828 22.4284668 C15.49233205 23.11931008 15.49233205 23.11931008 9.94042969 18.04052734 C7.15603295 14.64278407 5.61202425 11.06763695 4 7 C3.32446406 5.74434433 2.62724013 4.500104 1.90835571 3.26875305 C1.27859833 2.19006454 0.64884094 1.11137604 0 0 Z " fill="#01C2FE" transform="translate(339,230)"/>
<path d="M0 0 C3.32524542 1.10841514 3.74479055 1.65163163 5.6796875 4.40234375 C6.19047852 5.1195459 6.70126953 5.83674805 7.22753906 6.57568359 C7.77120117 7.35508301 8.31486328 8.13448242 8.875 8.9375 C10.03339909 10.57454086 11.19226759 12.21124965 12.3515625 13.84765625 C12.9487207 14.69473145 13.54587891 15.54180664 14.16113281 16.41455078 C15.98670761 18.98131089 17.84225285 21.52308581 19.7109375 24.05859375 C20.30406738 24.86627197 20.89719727 25.6739502 21.50830078 26.50610352 C22.65105124 28.06036588 23.79773666 29.61174437 24.94873047 31.15991211 C25.46580566 31.86768799 25.98288086 32.57546387 26.515625 33.3046875 C26.97227539 33.92327637 27.42892578 34.54186523 27.89941406 35.17919922 C29.0856014 37.14161829 29.63950917 38.74038056 30 41 C25.33046606 54.79391061 11.41471036 64.77320929 -0.875 71.25 C-21.23167965 80.92862805 -50.57412349 84.96083148 -72.4375 77.875 C-79.57463439 75.11853562 -85.83202161 71.57971663 -90 65 C-90.328125 62.95703125 -90.328125 62.95703125 -90.25 60.8125 C-90.23453125 60.11769531 -90.2190625 59.42289062 -90.203125 58.70703125 C-90.04319311 56.57563126 -89.8103355 54.44969888 -89.55078125 52.328125 C-88.66224592 44.5618763 -88.36316073 36.73971231 -87.9375 28.9375 C-87.84592921 27.29230511 -87.75413426 25.64712268 -87.66210938 24.00195312 C-87.4388196 20.00144117 -87.21857103 16.00077242 -87 12 C-86.0821875 12.20496094 -85.164375 12.40992188 -84.21875 12.62109375 C-57.84526651 18.41107069 -29.69246558 19.00589694 -6.09765625 4.17578125 C-4.60788755 3.13994531 -3.13679531 2.07588166 -1.69921875 0.96875 C-1.13847656 0.6490625 -0.57773437 0.329375 0 0 Z " fill="#FDFDFD" transform="translate(309,227)"/>
<path d="M0 0 C5.21357505 5.25191016 7.07427725 11.27892806 7.4375 18.5625 C7.26971057 27.55601326 4.14395441 36.95776566 -2.21484375 43.51171875 C-19.66946495 58.06360207 -46.91459273 58.72424993 -68.51318359 56.77294922 C-78.47631814 55.61082264 -88.45515107 53.76127031 -95.625 46.25 C-97.75745161 41.20965982 -98.08314307 36.9682286 -96.1875 31.7734375 C-88.43430939 16.5362643 -73.01338921 4.15692891 -56.95898438 -1.16479492 C-53.6582356 -2.19067197 -50.33963892 -3.10757039 -47 -4 C-46.11570313 -4.2475 -45.23140625 -4.495 -44.3203125 -4.75 C-30.93187298 -7.99568231 -11.77804142 -7.79571184 0 0 Z " fill="#FDFEFF" transform="translate(167,489)"/>
<path d="M0 0 C1.21411133 1.36669922 1.21411133 1.36669922 2.58203125 3.3046875 C3.09572266 4.02487061 3.60941406 4.74505371 4.13867188 5.48706055 C4.69103516 6.27508057 5.24339844 7.06310059 5.8125 7.875 C6.9854822 9.52487815 8.1586652 11.17461356 9.33203125 12.82421875 C10.23816162 14.10498291 10.23816162 14.10498291 11.16259766 15.41162109 C14.08127391 19.52320834 17.04191752 23.60422312 20 27.6875 C21.52843991 29.80128496 23.05608112 31.91542272 24.57421875 34.03662109 C25.53625627 35.36139948 26.51871056 36.67155682 27.51953125 37.96728516 C28.75411516 39.59086503 29.88715046 41.29067997 31 43 C29.65984777 47.02045669 27.14927921 47.99113252 23.625 49.9375 C22.99303711 50.29086426 22.36107422 50.64422852 21.70996094 51.00830078 C8.77364252 58.0766321 -3.8516259 60.39400438 -18.5 60.375 C-19.72436768 60.37411377 -20.94873535 60.37322754 -22.21020508 60.37231445 C-31.99872493 60.24560847 -41.7826279 59.52880187 -51 56 C-52.01514441 52.95456678 -52.04073759 51.31387683 -51.83813477 48.16137695 C-51.77799698 47.1805867 -51.71785919 46.19979645 -51.65589905 45.18928528 C-51.58511642 44.13295395 -51.5143338 43.07662262 -51.44140625 41.98828125 C-51.37340317 40.90491989 -51.30540009 39.82155853 -51.2353363 38.70536804 C-51.01658115 35.24070153 -50.78963616 31.77662619 -50.5625 28.3125 C-50.41287232 25.9655291 -50.26377705 23.61852419 -50.11523438 21.27148438 C-49.74966981 15.51391384 -49.37737741 9.75680767 -49 4 C-47.80165527 4.32307129 -46.60331055 4.64614258 -45.36865234 4.97900391 C-39.77860507 6.37217598 -34.36447867 6.36815098 -28.625 6.375 C-27.5525 6.39949219 -26.48 6.42398438 -25.375 6.44921875 C-17.16355261 6.47918754 -11.06555718 4.6608243 -3.84619141 0.86865234 C-2 0 -2 0 0 0 Z " fill="#FDFDFD" transform="translate(275,177)"/>
<path d="M0 0 C1.07040023 3.65521856 1.18048165 6.35611656 0 10 C-3.95973675 13.79340634 -8.37419561 16.68036023 -12.96484375 19.65625 C-15.97323692 21.64259789 -18.83610935 23.79629486 -21.6875 26 C-22.21537109 26.40532959 -22.74324219 26.81065918 -23.28710938 27.22827148 C-28.14726765 31.01312722 -32.66828874 35.12920869 -37.15625 39.34375 C-39.79041999 41.80423845 -42.47713459 44.1867476 -45.1875 46.5625 C-54.03355986 54.53522274 -61.38882015 63.74148374 -68.6015625 73.17333984 C-69.51363207 74.36469888 -70.43010498 75.55270354 -71.3515625 76.73681641 C-79.42853656 87.13710135 -86.09375436 98.23753175 -92.640625 109.65087891 C-93.08921875 110.42608887 -93.5378125 111.20129883 -94 112 C-94.53109375 112.92345215 -95.0621875 113.8469043 -95.609375 114.79833984 C-96.06828125 115.5248877 -96.5271875 116.25143555 -97 117 C-97.33 117 -97.66 117 -98 117 C-102.9189337 96.1645166 -94.01365306 75.36340455 -83.3125 57.8125 C-68.74574469 34.80529936 -29.46801709 0 0 0 Z " fill="#96E6FE" transform="translate(200,263)"/>
<path d="M0 0 C5.77050929 5.63582954 10.87034746 11.78676135 16 18 C16.49387207 18.59039062 16.98774414 19.18078125 17.49658203 19.7890625 C18.93139412 21.51292539 20.34330087 23.25316157 21.75 25 C22.19239014 25.52722656 22.63478027 26.05445313 23.09057617 26.59765625 C24.96667824 28.97306498 26 30.46228578 26 33.53515625 C23.94458384 38.60143593 20.31451341 42.70129199 17 47 C16.57460938 47.59425781 16.14921875 48.18851562 15.7109375 48.80078125 C10.45278947 55.81795003 2.3286669 60.64021105 -6 63 C-7.99957859 63.04105415 -10.00057629 63.04800876 -12 63 C-14.28484144 56.0786087 -16.56279913 49.15497994 -18.8359375 42.22973633 C-19.61038631 39.87309249 -20.38642177 37.51696946 -21.1640625 35.16137695 C-22.28020007 31.77950859 -23.39065729 28.39582115 -24.5 25.01171875 C-24.84998047 23.95538742 -25.19996094 22.89905609 -25.56054688 21.81071472 C-26.04104492 20.33952934 -26.04104492 20.33952934 -26.53125 18.83862305 C-26.81548828 17.97480515 -27.09972656 17.11098724 -27.39257812 16.22099304 C-28 14 -28 14 -28 11 C-28.99 10.67 -29.98 10.34 -31 10 C-30.1028125 9.86464844 -29.205625 9.72929687 -28.28125 9.58984375 C-18.06001718 7.82646991 -9.33202983 4.47594072 0 0 Z " fill="#E9E9EA" transform="translate(300,233)"/>
<path d="M0 0 C1.21411133 1.36669922 1.21411133 1.36669922 2.58203125 3.3046875 C3.09572266 4.02487061 3.60941406 4.74505371 4.13867188 5.48706055 C4.69103516 6.27508057 5.24339844 7.06310059 5.8125 7.875 C6.9854822 9.52487815 8.1586652 11.17461356 9.33203125 12.82421875 C10.23816162 14.10498291 10.23816162 14.10498291 11.16259766 15.41162109 C14.08127391 19.52320834 17.04191752 23.60422312 20 27.6875 C21.52843991 29.80128496 23.05608112 31.91542272 24.57421875 34.03662109 C25.53625627 35.36139948 26.51871056 36.67155682 27.51953125 37.96728516 C28.75411516 39.59086503 29.88715046 41.29067997 31 43 C29.65984777 47.02045669 27.14927921 47.99113252 23.625 49.9375 C22.99303711 50.29086426 22.36107422 50.64422852 21.70996094 51.00830078 C10.38256147 57.19752788 -1.07894877 60.4168081 -14 60 C-14 59.67 -14 59.34 -14 59 C-10.535 58.505 -10.535 58.505 -7 58 C-7.18792114 57.41784225 -7.37584229 56.83568451 -7.56945801 56.23588562 C-9.52110135 50.18700828 -11.46666989 44.13620168 -13.40869141 38.08422852 C-14.13466646 35.82461085 -14.86219912 33.565493 -15.59130859 31.30688477 C-16.6378729 28.0639593 -17.67885796 24.81928898 -18.71875 21.57421875 C-19.04685669 20.56163498 -19.37496338 19.54905121 -19.7130127 18.50578308 C-20.16347961 17.09465996 -20.16347961 17.09465996 -20.62304688 15.6550293 C-20.88952026 14.82674118 -21.15599365 13.99845306 -21.43054199 13.14506531 C-22 11 -22 11 -22 8 C-26.62 8 -31.24 8 -36 8 C-36 7.67 -36 7.34 -36 7 C-35.44650879 6.9906543 -34.89301758 6.98130859 -34.32275391 6.97167969 C-19.64911919 6.84997986 -19.64911919 6.84997986 -6 2 C-2.23529412 0 -2.23529412 0 0 0 Z " fill="#E7E7E8" transform="translate(275,177)"/>
<path d="M0 0 C4.13364891 3.87155161 7.30004887 8.02750738 10.5 12.6875 C11.55770655 14.20634738 12.61633217 15.72455507 13.67578125 17.2421875 C14.22057129 18.02432617 14.76536133 18.80646484 15.32666016 19.61230469 C18.07794043 23.53811751 20.87968163 27.42700829 23.6875 31.3125 C24.22785889 32.06168701 24.76821777 32.81087402 25.32495117 33.58276367 C27.79074783 36.99091256 30.27419834 40.38179479 32.8203125 43.73046875 C33.24481689 44.28887451 33.66932129 44.84728027 34.10668945 45.42260742 C35.22846336 46.89006667 36.35806247 48.35153497 37.48828125 49.8125 C39 52 39 52 39 54 C25.88885516 61.02382759 13.49606841 61.70646316 -0.8671875 57.65625 C-1.57101563 57.4396875 -2.27484375 57.223125 -3 57 C-3.88873698 54.00688536 -4.0613394 51.54318533 -3.85400391 48.43432617 C-3.79709381 47.53626755 -3.74018372 46.63820892 -3.68154907 45.7129364 C-3.6139035 44.74934708 -3.54625793 43.78575775 -3.4765625 42.79296875 C-3.41093109 41.79421219 -3.34529968 40.79545563 -3.27767944 39.76643372 C-3.1376213 37.65390545 -2.99452987 35.54157641 -2.84863281 33.42944336 C-2.62658965 30.21054474 -2.41403922 26.99112939 -2.203125 23.77148438 C-2.06566517 21.71610824 -1.92766196 19.66076835 -1.7890625 17.60546875 C-1.72546539 16.64795212 -1.66186829 15.69043549 -1.59634399 14.7039032 C-1.25193691 9.75954633 -0.77764785 4.89547437 0 0 Z " fill="#FCFCFC" transform="translate(231,118)"/>
<path d="M0 0 C1.21411133 1.36669922 1.21411133 1.36669922 2.58203125 3.3046875 C3.09572266 4.02487061 3.60941406 4.74505371 4.13867188 5.48706055 C4.69103516 6.27508057 5.24339844 7.06310059 5.8125 7.875 C6.9854822 9.52487815 8.1586652 11.17461356 9.33203125 12.82421875 C10.23816162 14.10498291 10.23816162 14.10498291 11.16259766 15.41162109 C14.08127391 19.52320834 17.04191752 23.60422312 20 27.6875 C21.52843991 29.80128496 23.05608112 31.91542272 24.57421875 34.03662109 C25.53625627 35.36139948 26.51871056 36.67155682 27.51953125 37.96728516 C28.75411516 39.59086503 29.88715046 41.29067997 31 43 C29.63792042 47.08623873 27.73386836 47.9894555 24 50 C20.74694266 49.85518982 19.38723343 49.37568571 17.03515625 47.09375 C16.38417969 46.2378125 15.73320312 45.381875 15.0625 44.5 C14.29035156 43.51 13.51820313 42.52 12.72265625 41.5 C12.29484863 40.94570312 11.86704102 40.39140625 11.42626953 39.8203125 C8.68679154 36.32398454 5.83270059 32.92084123 3 29.5 C1.79650204 28.03806737 0.59337119 26.57583243 -0.609375 25.11328125 C-2.67481161 22.60434244 -4.74643966 20.10093787 -6.828125 17.60546875 C-7.62734375 16.64253906 -8.4265625 15.67960938 -9.25 14.6875 C-10.27867187 13.45580078 -10.27867187 13.45580078 -11.328125 12.19921875 C-12.85427217 10.19169339 -13.97099626 8.29425834 -15 6 C-14.39671875 5.73445312 -13.7934375 5.46890625 -13.171875 5.1953125 C-12.37265625 4.84210938 -11.5734375 4.48890625 -10.75 4.125 C-9.96109375 3.77695313 -9.1721875 3.42890625 -8.359375 3.0703125 C-6.82990954 2.37648214 -5.3172252 1.64387645 -3.828125 0.8671875 C-2 0 -2 0 0 0 Z " fill="#FBFBFB" transform="translate(275,177)"/>
<path d="M0 0 C4.352795 2.34381269 8.04773979 4.9152134 9.5546875 9.796875 C10.9275872 16.5891156 10.80974725 23.27707225 7.26171875 29.33984375 C4.31992894 33.21061981 1.31315047 34.73250639 -3.375 35.6875 C-8.62612839 34.69159634 -11.53958807 31.97096451 -15 28 C-17.78429346 22.89546199 -17.78923991 16.68574874 -17 11 C-15.33534359 6.80396526 -13.06150742 3.89390099 -9.625 1 C-6.13553734 -0.32931911 -3.71160189 -0.45581076 0 0 Z " fill="#262728" transform="translate(434,393)"/>
<path d="M0 0 C4.24634036 1.6632113 6.81138486 5.14633633 9.25390625 8.8828125 C11.00638515 14.14024921 11.35898681 20.00579243 9.34765625 25.2421875 C6.77053823 29.63650412 3.89552102 32.60936853 -0.74609375 34.8828125 C-4.62151103 35.52871538 -6.34813927 35.08178974 -9.87109375 33.3203125 C-14.51526603 29.38286209 -16.44599972 26.51322852 -17.12890625 20.52734375 C-17.29560533 15.25409633 -17.29622995 11.11003942 -15.12109375 6.2578125 C-10.32041918 1.45713793 -6.87538459 -1.09354679 0 0 Z " fill="#262728" transform="translate(135.74609375,393.1171875)"/>
<path d="M0 0 C4.875 4.625 4.875 4.625 6 8 C1.38 8 -3.24 8 -8 8 C-8 7.67 -8 7.34 -8 7 C-3.545 6.505 -3.545 6.505 1 6 C0.67 4.02 0.34 2.04 0 0 Z " fill="#D0D0D0" transform="translate(248,170)"/>
</svg>
